<?xml version="1.0" standalone="no"?>
<!DOCTYPE svg PUBLIC "-//W3C//DTD SVG 20010904//EN"
 "http://www.w3.org/TR/2001/REC-SVG-20010904/DTD/svg10.dtd">
<svg version="1.0" xmlns="http://www.w3.org/2000/svg"
 width="1052.000000pt" height="1052.000000pt" viewBox="0 0 1052.000000 1052.000000"
 preserveAspectRatio="xMidYMid meet">
<metadata>
Created by potrace 1.14, written by Peter Selinger 2001-2017
</metadata>
<g transform="translate(0.000000,1052.000000) scale(0.100000,-0.100000)"
fill="#000000" stroke="none">
<path d="M4979 10506 c-2 -2 -54 -6 -116 -10 -61 -4 -119 -8 -130 -10 -15 -3
-115 -15 -178 -21 -11 -1 -42 -6 -70 -10 -27 -5 -57 -9 -65 -10 -61 -8 -319
-61 -435 -90 -55 -14 -107 -27 -116 -29 -194 -49 -548 -176 -767 -277 -493
-227 -879 -476 -1307 -842 -33 -28 -146 -137 -250 -242 -173 -173 -239 -244
-321 -345 -16 -19 -31 -37 -35 -40 -18 -15 -208 -273 -282 -382 -321 -473
-605 -1099 -723 -1588 -2 -8 -13 -53 -25 -100 -11 -47 -23 -92 -24 -100 -7
-29 -43 -215 -49 -250 -3 -19 -7 -44 -10 -55 -2 -11 -7 -42 -10 -70 -4 -27 -9
-57 -11 -65 -2 -8 -6 -44 -10 -80 -3 -36 -7 -78 -9 -95 -22 -173 -34 -621 -21
-805 13 -187 17 -239 20 -265 2 -17 6 -57 10 -90 4 -33 8 -67 10 -75 2 -9 7
-43 11 -75 4 -33 9 -62 9 -65 1 -3 5 -27 9 -55 22 -138 102 -478 147 -624 216
-699 546 -1306 1010 -1862 108 -129 447 -476 558 -570 35 -30 69 -59 75 -64
34 -31 176 -143 276 -217 530 -391 1144 -684 1790 -852 117 -30 353 -82 415
-91 46 -6 113 -16 165 -25 30 -5 82 -11 115 -14 33 -3 70 -8 81 -10 102 -21
719 -29 949 -12 66 4 122 9 125 11 3 2 41 6 85 10 44 4 82 8 85 10 3 1 30 6
61 9 31 4 67 9 80 11 24 5 64 12 109 19 71 11 108 19 135 26 17 5 42 12 58 15
15 3 39 7 55 10 15 3 61 15 102 26 41 11 83 22 93 24 22 5 151 44 272 83 117
38 337 122 350 133 5 5 15 9 21 9 14 0 130 53 311 141 355 175 746 435 1077
716 110 94 440 421 523 518 28 33 69 82 92 108 355 417 691 998 888 1537 107
292 207 663 247 920 3 19 8 46 10 60 3 14 7 43 11 65 3 22 7 54 10 70 4 29 9
70 19 165 6 54 16 186 22 290 4 91 4 420 -1 510 -5 101 -16 242 -20 275 -2 17
-6 50 -9 75 -13 110 -17 139 -26 195 -110 678 -319 1268 -653 1840 -228 390
-484 722 -807 1045 -205 206 -242 240 -380 355 -500 415 -1100 746 -1715 947
-84 27 -321 96 -355 103 -8 2 -46 10 -85 19 -93 22 -201 44 -250 51 -22 4 -47
8 -56 11 -9 2 -34 7 -55 9 -22 3 -50 7 -64 10 -14 2 -45 7 -70 10 -25 3 -61 8
-80 10 -19 2 -66 7 -105 11 -38 3 -81 8 -95 11 -30 6 -694 15 -701 9z"/>
</g>
</svg>
