<svg xmlns="http://www.w3.org/2000/svg" xmlns:xlink="http://www.w3.org/1999/xlink" viewBox="0 0 109.8 39.7"><defs><style>.cls-1{fill:none;}.cls-2{fill:#4a8cff;}.cls-3{clip-path:url(#clip-path);}.cls-4{fill:#e5e5e4;}.cls-5{clip-path:url(#clip-path-2);}.cls-6{fill:#fff;}.cls-7{clip-path:url(#clip-path-3);}.cls-8{clip-path:url(#clip-path-4);}</style><clipPath id="clip-path" transform="translate(0.9 0.9)"><circle class="cls-1" cx="18.9" cy="18.9" r="18.9"/></clipPath><clipPath id="clip-path-2" transform="translate(0.9 0.9)"><circle class="cls-1" cx="18.9" cy="18.9" r="18.5"/></clipPath><clipPath id="clip-path-3" transform="translate(0.9 0.9)"><circle class="cls-1" cx="18.9" cy="18.9" r="17.1"/></clipPath><clipPath id="clip-path-4" transform="translate(0.9 0.9)"><path class="cls-1" d="M24.1,16.7l4.8-3.5c.4-.3.7-.3.7.4V24.3c0,.7-.4.6-.7.4l-4.8-3.5ZM7.8,13.6v8a3.33,3.33,0,0,0,3.3,3.3H22.8a.65.65,0,0,0,.6-.6v-8A3.33,3.33,0,0,0,20.1,13H8.4A.58.58,0,0,0,7.8,13.6Z"/></clipPath></defs><g id="Layer_2" data-name="Layer 2"><g id="Layer_1-2" data-name="Layer 1"><path class="cls-2" d="M55.6,23.4H48.2l8.9-8.9v-.7a2.22,2.22,0,0,0-2.2-2.2H43v.7a2.37,2.37,0,0,0,2.2,2.2h7.4l-8.9,8.9v.7a2.29,2.29,0,0,0,2.2,2.2H57.7v-.7A2.2,2.2,0,0,0,55.6,23.4Z" transform="translate(0.9 0.9)"/><path class="cls-2" d="M64.5,11.5h0a7.4,7.4,0,1,0,7.4,7.4A7.38,7.38,0,0,0,64.5,11.5Zm3.1,10.6a4.53,4.53,0,0,1-6.3,0A4.32,4.32,0,0,1,60,19a4.16,4.16,0,0,1,1.3-3.1,4.53,4.53,0,0,1,6.3,0h0a6.07,6.07,0,0,1,.7,1A4.15,4.15,0,0,1,67.6,22.1Z" transform="translate(0.9 0.9)"/><path class="cls-2" d="M103.1,11.5a5.71,5.71,0,0,0-4.4,2,6,6,0,0,0-7.8-1,4.45,4.45,0,0,0-2.6-1V26.3H89a2.37,2.37,0,0,0,2.2-2.2V17.5a2.82,2.82,0,0,1,.4-1.5,2.94,2.94,0,0,1,4-1.1A3.84,3.84,0,0,1,96.7,16h0a4.19,4.19,0,0,1,.4,1.5v6.6a2.29,2.29,0,0,0,2.2,2.2h.7V17.4a2.82,2.82,0,0,1,.4-1.5,3,3,0,0,1,4.1-1.1,3.84,3.84,0,0,1,1.1,1.1,4.19,4.19,0,0,1,.4,1.5V24a2.29,2.29,0,0,0,2.2,2.2h.7V17.5A5.85,5.85,0,0,0,103.1,11.5Z" transform="translate(0.9 0.9)"/><path class="cls-2" d="M85.3,13.7a7.44,7.44,0,0,0-5.2-2.2,7.26,7.26,0,0,0-5.2,2.2A7.42,7.42,0,0,0,85.4,24.2,7.52,7.52,0,0,0,85.3,13.7Zm-2.1,8.4a4.53,4.53,0,0,1-6.3,0A4.32,4.32,0,0,1,75.6,19a4.16,4.16,0,0,1,1.3-3.1,4.53,4.53,0,0,1,6.3,0h0a6.07,6.07,0,0,1,.7,1A4.15,4.15,0,0,1,83.2,22.1Z" transform="translate(0.9 0.9)"/><g class="cls-3"><path class="cls-4" d="M-.9-.9H38.8V38.8H-.9Z" transform="translate(0.9 0.9)"/></g><g class="cls-5"><path class="cls-6" d="M-.6-.5H38.3V38.4H-.6Z" transform="translate(0.9 0.9)"/></g><g class="cls-7"><path class="cls-2" d="M.9,1h36V37H.9Z" transform="translate(0.9 0.9)"/></g><g class="cls-8"><path class="cls-6" d="M6.9,12.1H30.6V25.8H6.9Z" transform="translate(0.9 0.9)"/></g></g></g></svg>